<?xml version="1.0" encoding="iso-8859-1"?>
<!-- Generator: Adobe Illustrator 19.0.0, SVG Export Plug-In . SVG Version: 6.00 Build 0)  -->
<svg version="1.1" id="Capa_1" xmlns="http://www.w3.org/2000/svg" xmlns:xlink="http://www.w3.org/1999/xlink" x="0px" y="0px"
	 viewBox="0 0 482.267 482.267" style="enable-background:new 0 0 482.267 482.267;" xml:space="preserve">
<g>
	<g>
		<path d="M424.51,4.226c-2.835-2.983-6.87-4.52-10.971-4.18H68.722C60.664-0.53,53.663,5.535,53.086,13.593
			c-0.026,0.36-0.038,0.721-0.037,1.082v209.502c0.145,25.958,17.374,48.718,42.318,55.902l91.951,24.555h1.045
			c2.477,0.384,4.716,1.69,6.269,3.657c1.069,1.723,1.614,3.72,1.567,5.747v3.135c-0.522,3.657-14.106,89.339-14.106,106.057
			c0,32.605,26.432,59.037,59.037,59.037s59.037-26.432,59.037-59.037c0-16.196-12.016-90.906-14.106-106.057h-0.522
			c-0.537-2.717,0.027-5.535,1.567-7.837c0.965-2.155,2.911-3.711,5.224-4.18h2.612l91.429-24.555
			c24.968-6.824,42.293-29.496,42.318-55.38l0.522-210.547C429.338,10.654,427.603,6.799,424.51,4.226z M407.269,223.132
			c0.139,16.778-11.001,31.56-27.167,36.049l-90.906,24.555h-2.612c-15.758,4.569-25.327,20.517-21.943,36.571
			c7.314,43.886,14.106,92.473,14.106,102.922c0,21.063-17.075,38.139-38.139,38.139s-38.139-17.075-38.139-38.139
			c0-10.971,7.837-65.829,13.584-100.833c0.65-1.3,1.007-2.727,1.045-4.18c1.054-7.786-1.012-15.673-5.747-21.943
			c-4.557-6.45-11.529-10.784-19.331-12.016l-90.906-24.555c-16.085-4.28-27.251-18.882-27.167-35.527v-36.049h333.845
			L407.269,223.132z M407.792,167.23H73.947V20.945h31.347v78.367c0,5.771,4.678,10.449,10.449,10.449s10.449-4.678,10.449-10.449
			V20.945h41.796v78.367c0,5.771,4.678,10.449,10.449,10.449c5.771,0,10.449-4.678,10.449-10.449V20.945h41.796v78.367
			c0,5.771,4.678,10.449,10.449,10.449s10.449-4.678,10.449-10.449V20.945h41.796v78.367c0,5.771,4.678,10.449,10.449,10.449
			s10.449-4.678,10.449-10.449V20.945h41.796v78.367c0,5.771,4.678,10.449,10.449,10.449s10.449-4.678,10.449-10.449V20.945h31.347
			L407.792,167.23z"/>
	</g>
</g>
</svg>
