<?xml version="1.0" encoding="iso-8859-1"?>
<!-- Generator: Adobe Illustrator 19.0.0, SVG Export Plug-In . SVG Version: 6.00 Build 0)  -->
<svg version="1.1" id="Capa_1" xmlns="http://www.w3.org/2000/svg" xmlns:xlink="http://www.w3.org/1999/xlink" x="0px" y="0px"
	 viewBox="0 0 409.601 409.601" style="enable-background:new 0 0 409.601 409.601;" xml:space="preserve">
<g>
	<g>
		<path d="M409.5,395.6l-20.6-130.9v-57.1c-0.1-23-18.8-41.5-41.8-41.5h-95.2V49.6c0-26-21-47-47-47s-47,21-47,47V166H62.7
			c-23,0-41.7,18.5-41.8,41.5v57.1L0.1,395.5c-0.4,2.9,0.4,5.8,2.3,8c1.9,2.2,4.7,3.5,7.7,3.5h389.4c5.6,0,10.1-4.5,10.1-10.1
			C409.6,396.4,409.6,395.9,409.5,395.6z M40.9,207.6c0.1-11.9,9.8-21.5,21.8-21.5h105.4c5.5-0.1,9.9-4.6,9.9-10.1V49.6
			c0-14.9,12.1-27,27-27c14.9,0,27,12.1,27,27V176c-0.1,5.5,4.3,10,9.9,10.1h105.4c11.9,0,21.7,9.6,21.8,21.5V255H40.9V207.6z
			 M297.9,387v-46.8c0-5.5-4.5-10-10-10s-10,4.5-10,10V387h-63v-67.6c0-5.5-4.5-10-10-10s-10,4.5-10,10V387h-63v-46.8
			c0-5.5-4.5-10-10-10s-10,4.5-10,10V387H21.8l17.9-112h330.5l17.9,112H297.9z"/>
	</g>
</g>
<g>
</g>
<g>
</g>
<g>
</g>
<g>
</g>
<g>
</g>
<g>
</g>
<g>
</g>
<g>
</g>
<g>
</g>
<g>
</g>
<g>
</g>
<g>
</g>
<g>
</g>
<g>
</g>
<g>
</g>
</svg>
